<?xml version="1.0" standalone="no"?>
<svg viewBox="0 0 200 200" xmlns="http://www.w3.org/2000/svg">
  <path fill="#E8DAFF" d="M28.3,-52.4C34,-45.7,34.1,-32.7,45.1,-23C56.2,-13.2,78.1,-6.6,85.2,4.1C92.3,14.8,84.6,29.6,73.5,39.2C62.3,48.7,47.7,53,34.9,60.6C22.1,68.1,11,78.9,1.7,76C-7.7,73.1,-15.3,56.5,-24.1,46.6C-32.8,36.7,-42.7,33.5,-54.7,26.9C-66.8,20.2,-81,10.1,-84.5,-2C-88,-14.1,-80.7,-28.3,-71.3,-39.5C-61.9,-50.7,-50.4,-59,-38.2,-62C-25.9,-64.9,-13,-62.6,-0.8,-61.1C11.3,-59.7,22.6,-59.2,28.3,-52.4Z" transform="translate(100 100)" />
</svg>
