<?xml version="1.0" standalone="no"?><svg xmlns="http://www.w3.org/2000/svg" viewBox="0 0 1440 320"><path fill="#a2d9ff" fill-opacity="1" d="M0,256L24,245.3C48,235,96,213,144,218.7C192,224,240,256,288,229.3C336,203,384,117,432,101.3C480,85,528,139,576,154.7C624,171,672,149,720,149.3C768,149,816,171,864,160C912,149,960,107,1008,122.7C1056,139,1104,213,1152,250.7C1200,288,1248,288,1296,256C1344,224,1392,160,1416,128L1440,96L1440,0L1416,0C1392,0,1344,0,1296,0C1248,0,1200,0,1152,0C1104,0,1056,0,1008,0C960,0,912,0,864,0C816,0,768,0,720,0C672,0,624,0,576,0C528,0,480,0,432,0C384,0,336,0,288,0C240,0,192,0,144,0C96,0,48,0,24,0L0,0Z"></path></svg>